<?xml version="1.0" encoding="UTF-8"?>
<svg width="24px" height="24px" viewBox="0 0 24 24" version="1.1" xmlns="http://www.w3.org/2000/svg" xmlns:xlink="http://www.w3.org/1999/xlink">
    <title>切片</title>
    <g id="页面-1" stroke="none" stroke-width="1" fill="none" fill-rule="evenodd">
        <g id="CryptoShow" transform="translate(-1388.000000, -38.000000)">
            <g id="编组-18" transform="translate(1388.000000, 38.000000)">
                <rect id="矩形" x="0" y="0" width="24" height="24"></rect>
                <path d="M19,15.8888889 L19,19 L15.8888889,19 L15.8888889,15.8888889 L19,15.8888889 Z M8.11111111,10.4444444 L8.111,15.8884444 L13.5555556,15.8888889 L13.5555556,19 L5,19 L5,10.4444444 L8.11111111,10.4444444 Z M13.5555556,10.4444444 L13.5555556,13.5555556 L10.4444444,13.5555556 L10.4444444,10.4444444 L13.5555556,10.4444444 Z M19,5 L19,13.5555556 L15.8888889,13.5555556 L15.8884444,8.111 L10.4444444,8.11111111 L10.4444444,5 L19,5 Z M8.11111111,5 L8.11111111,8.11111111 L5,8.11111111 L5,5 L8.11111111,5 Z" id="形状结合" fill="#FFFFFF" transform="translate(12.000000, 12.000000) rotate(-45.000000) translate(-12.000000, -12.000000) "></path>
            </g>
        </g>
    </g>
</svg>