<?xml version="1.0" encoding="UTF-8"?>
<svg width="185px" height="32px" viewBox="0 0 185 32" version="1.1" xmlns="http://www.w3.org/2000/svg" xmlns:xlink="http://www.w3.org/1999/xlink">
    <title>切片</title>
    <g id="页面-1" stroke="none" stroke-width="1" fill="none" fill-rule="evenodd">
        <g id="H5-侧栏" transform="translate(-30.000000, -24.000000)" fill-rule="nonzero">
            <g id="logo" transform="translate(30.000000, 24.000000)">
                <g id="编组" transform="translate(41.366460, 2.285714)" fill="#FFFFFF">
                    <path d="M10.1517154,1.90909091 C8.73939518,1.90909091 7.42264548,2.15768057 6.19084738,2.65485989 C4.95904927,3.15203921 3.8865354,3.86673449 2.96268682,4.77822991 C2.03883824,5.68972533 1.30613075,6.76694719 0.78580224,8.0202534 C0.26547373,9.2632017 0,10.6200869 0,12.0909091 C0,13.5617312 0.26547373,14.9186165 0.78580224,16.1615648 C1.30613075,17.4045131 2.02821929,18.4817349 2.96268682,19.4035883 C3.8865354,20.3150837 4.96966822,21.029779 6.19084738,21.5269583 C7.42264548,22.0241376 8.73939518,22.2727273 10.1517154,22.2727273 C11.6383683,22.2727273 12.8914043,22.0966429 13.8895855,21.7341163 C14.8877668,21.3715898 15.8222343,20.8329788 16.6717502,20.0975677 L16.6717502,16.9280496 C16.2045165,17.5080921 15.6417122,18.0259872 14.9939563,18.471377 C14.3355814,18.9167669 13.6028739,19.2585776 12.8064527,19.5071673 C11.9994126,19.755757 11.1180398,19.8696939 10.1517154,19.8696939 C8.81372782,19.8696939 7.58192972,19.538241 6.44570216,18.8753352 C5.30947459,18.2124295 4.38562601,17.3009341 3.67415642,16.1304911 C2.97330577,14.9600481 2.6122615,13.6135208 2.6122615,12.0909091 C2.6122615,10.5475816 2.96268682,9.19069638 3.67415642,8.0306113 C4.37500706,6.87052622 5.29885564,5.9590308 6.44570216,5.30648294 C7.58192972,4.64357718 8.82434677,4.31212429 10.1517154,4.31212429 C11.1180398,4.31212429 11.9994126,4.43641913 12.8064527,4.67465088 C13.6134929,4.92324054 14.3355814,5.26505133 14.9939563,5.71044114 C15.6523311,6.15583094 16.2151354,6.66336817 16.6717502,7.25376861 L16.6717502,4.08425044 C15.8222343,3.34883936 14.8983857,2.79987053 13.8895855,2.44770184 C12.8914043,2.08517525 11.6383683,1.90909091 10.1517154,1.90909091 Z" id="路径"></path>
                    <path d="M25.7025052,8.27272727 C25.0800645,8.27272727 24.4576239,8.51229363 23.8566468,8.98101042 C23.481036,9.27265642 23.1483523,9.63721392 22.8585954,10.0538511 L22.8585954,8.55395734 L20.5190772,8.55395734 L20.5190772,21.6363636 L22.8585954,21.6363636 L22.8585954,13.6681783 C22.8585954,13.0432226 22.9229858,12.4807624 23.0517666,11.9912138 C23.1805475,11.5016651 23.4059139,11.1058598 23.7385977,10.8246298 C24.0712815,10.5433997 24.5327461,10.3975767 25.1122597,10.3975767 C25.4986022,10.3975767 25.8205543,10.4496563 26.0781159,10.5538156 C26.3356775,10.6579749 26.6147026,10.8246298 26.925923,11.0537802 L28.2137311,9.17891306 C27.8595839,8.81435556 27.4732414,8.5747892 27.0547038,8.44979806 C26.6468978,8.33522284 26.196165,8.27272727 25.7025052,8.27272727 Z" id="路径"></path>
                    <polygon id="路径" points="35.6841446 17.8065243 32.1235251 8.90909091 29.4961735 8.90909091 34.3653966 19.997453 30.8757867 28 33.3712636 28 41.6793756 8.90909091 39.1838987 8.90909091"></polygon>
                    <path d="M53.2946245,9.07324841 C52.3446672,8.53618992 51.2936506,8.27272727 50.1314688,8.27272727 C49.0804523,8.27272727 48.1608128,8.53618992 47.3624444,9.07324841 C46.7358769,9.48870874 46.2204745,10.0561668 45.8061315,10.7553561 L45.8061315,8.5463231 L43.603039,8.5463231 L43.603039,27.3636364 L45.8061315,27.3636364 L45.8061315,19.0645628 C46.2204745,19.7637522 46.7358769,20.3312102 47.3624444,20.7466705 C48.1608128,21.283729 49.0905582,21.5471917 50.1314688,21.5471917 C51.2936506,21.5471917 52.3446672,21.283729 53.2946245,20.7466705 C54.2445817,20.209612 55.0025264,19.4496236 55.5684584,18.4464389 C56.1343904,17.4533874 56.4274623,16.2678054 56.4274623,14.9099595 C56.4274623,13.521714 56.1444963,12.3462652 55.5684584,11.3532137 C55.0025264,10.3702953 54.2445817,9.60017371 53.2946245,9.07324841 Z M53.5978023,17.3925883 C53.2036711,18.0715113 52.6781628,18.5883034 52.0212775,18.9429647 C51.3643921,19.2976259 50.6468712,19.46989 49.8586088,19.46989 C49.2118294,19.46989 48.5751559,19.2976259 47.9586942,18.9429647 C47.3321267,18.5883034 46.8167243,18.0715113 46.4124872,17.3925883 C46.00825,16.7136653 45.8061315,15.8827446 45.8061315,14.8998263 C45.8061315,13.9270411 46.00825,13.0961204 46.4124872,12.4070643 C46.8167243,11.7281413 47.3321267,11.2113492 47.9586942,10.8566879 C48.5852618,10.5020266 49.2219353,10.3297626 49.8586088,10.3297626 C50.6468712,10.3297626 51.374498,10.5020266 52.0212775,10.8566879 C52.6781628,11.2113492 53.1935652,11.7281413 53.5978023,12.4070643 C53.9919335,13.0859873 54.1940521,13.9169079 54.1940521,14.8998263 C54.1940521,15.8827446 53.9919335,16.7136653 53.5978023,17.3925883 Z" id="形状"></path>
                    <polygon id="路径" points="62.028958 3.81818182 59.8030629 3.81818182 59.8030629 8.4174408 57.7099046 8.4174408 57.7099046 10.5749879 59.8030629 10.5749879 59.8030629 21.6363636 62.028958 21.6363636 62.028958 10.5749879 64.1221162 10.5749879 64.1221162 8.4174408 62.028958 8.4174408"></polygon>
                    <path d="M75.5737635,9.13917204 C74.5682458,8.56833784 73.4176018,8.27272727 72.1321977,8.27272727 C70.8675259,8.27272727 69.7272481,8.55814437 68.7113642,9.13917204 C67.6954804,9.71000624 66.8869197,10.5050967 66.2960485,11.5040566 C65.7051773,12.5030164 65.4045586,13.6548783 65.4045586,14.9596422 C65.4045586,16.2440191 65.7051773,17.3856875 66.2960485,18.3948409 C66.8869197,19.4039942 67.6954804,20.1990847 68.7113642,20.7699189 C69.7272481,21.3407531 70.8675259,21.6363636 72.1321977,21.6363636 C73.4176018,21.6363636 74.5578796,21.3509465 75.5737635,20.7699189 C76.5792812,20.1990847 77.3878418,19.4039942 77.978713,18.3948409 C78.5695843,17.3856875 78.870203,16.2338257 78.870203,14.9596422 C78.870203,13.6650718 78.5695843,12.5132099 77.978713,11.5040566 C77.3878418,10.5050967 76.5792812,9.72019971 75.5737635,9.13917204 Z M75.9987761,17.3245267 C75.6152281,18.0074891 75.0865539,18.5579363 74.4127533,18.9554816 C73.7389528,19.3530268 72.982223,19.5568962 72.1321977,19.5568962 C71.2821724,19.5568962 70.5254426,19.3530268 69.8516421,18.9554816 C69.1778415,18.5579363 68.6491673,18.0176825 68.2656193,17.3245267 C67.8820713,16.6415644 67.6851142,15.8464739 67.6851142,14.9596422 C67.6851142,14.0728105 67.8820713,13.27772 68.2656193,12.5845642 C68.6491673,11.8914084 69.1778415,11.3511546 69.8516421,10.9536093 C70.5254426,10.5662575 71.2821724,10.3725817 72.1321977,10.3725817 C72.982223,10.3725817 73.7389528,10.5662575 74.4127533,10.9536093 C75.0865539,11.3409611 75.6152281,11.8812149 75.9987761,12.5845642 C76.3823241,13.27772 76.5792812,14.0728105 76.5792812,14.9596422 C76.5792812,15.8464739 76.3823241,16.6415644 75.9987761,17.3245267 Z" id="形状"></path>
                    <path d="M91.9609174,12.6191621 C91.4758329,12.1530565 90.9402187,11.780172 90.3742867,11.4694349 C89.8083547,11.1690558 89.2626345,10.9204661 88.7472322,10.7340239 C87.6254741,10.3404236 86.7361524,9.93646537 86.089373,9.53250717 C85.4324876,9.12854897 84.9676149,8.69351706 84.6947549,8.22741145 C84.4218948,7.76130584 84.2804118,7.26412651 84.2804118,6.71515768 C84.2804118,6.07296772 84.5229541,5.49292518 84.9979327,4.97503006 C85.4729113,4.45713493 86.2409619,4.19818737 87.2919785,4.19818737 C88.0499231,4.19818737 88.6865966,4.3535559 89.2121049,4.65393508 C89.7376132,4.95431425 90.182274,5.33755664 90.5460874,5.81402016 C90.9099009,6.29048368 91.2130787,6.76694719 91.455621,7.25376861 L93.4667008,6.06260982 C93.153417,5.36863035 92.7188621,4.70572459 92.1731419,4.07389254 C91.6173159,3.44206048 90.9503246,2.92416536 90.1721681,2.52020716 C89.3940116,2.11624896 88.4743721,1.90909091 87.4233555,1.90909091 C86.3420212,1.90909091 85.3718521,2.12660686 84.5229541,2.57199667 C83.6740561,3.01738648 83.0171707,3.61814483 82.5320862,4.39498752 C82.0571075,5.1718302 81.8145652,6.04189402 81.8145652,7.02589476 C81.8145652,7.92703228 81.986366,8.69351706 82.3299676,9.31499121 C82.6735692,9.93646537 83.1081241,10.4647184 83.6437383,10.8893924 C84.1793525,11.3140664 84.7351786,11.6662351 85.3314283,11.9355406 C85.9175722,12.204846 86.4531864,12.4327199 86.9281651,12.5984463 C87.6658978,12.8677518 88.353101,13.1577731 89.0099863,13.4892259 C89.6668717,13.8206788 90.19238,14.2453528 90.5966171,14.7736058 C91.0008542,15.3018589 91.2029728,16.0061962 91.2029728,16.8969759 C91.2029728,17.7981134 90.889689,18.5438824 90.2631215,19.1342828 C89.6365539,19.7143253 88.8078677,20.0147045 87.777063,20.0147045 C87.0090125,20.0147045 86.3117034,19.8489781 85.7053477,19.5071673 C85.098992,19.1653565 84.5532719,18.6992509 84.0681873,18.0881347 C83.5831027,17.4873763 83.11823,16.7830389 82.6735692,15.9958383 L80.7938665,17.3009341 C81.2183155,18.1709979 81.7640356,18.9789143 82.4310269,19.7453991 C83.0980182,20.5118838 83.8862806,21.1230001 84.7756023,21.5787478 C85.664924,22.0448534 86.6350931,22.2727273 87.6861097,22.2727273 C88.4541603,22.2727273 89.201999,22.1380745 89.909414,21.879127 C90.6168289,21.6201794 91.2535024,21.236937 91.8093285,20.7501156 C92.3752605,20.2632942 92.8098154,19.6625358 93.1332051,18.9685564 C93.4565949,18.2745769 93.6182897,17.4873763 93.6182897,16.6173125 C93.6182897,15.716175 93.4667008,14.9393323 93.153417,14.2867844 C92.8401332,13.6342366 92.446002,13.0749098 91.9609174,12.6191621 Z" id="路径"></path>
                    <path d="M106.194741,9.1522834 C105.502798,8.78659838 104.693757,8.59359795 103.767618,8.59359795 C102.84148,8.59359795 102.021794,8.82723005 101.30856,9.28433632 C100.680489,9.69065301 100.169516,10.2290226 99.7862862,10.8994452 L99.7862862,0 L97.4656167,0 L97.4656167,21.6363636 L99.7862862,21.6363636 L99.7862862,13.865557 C99.7862862,13.2560819 99.9246748,12.7075544 100.212097,12.2301323 C100.488874,11.7527102 100.893395,11.3667093 101.404368,11.0924456 C101.915341,10.8181818 102.511476,10.675971 103.192774,10.675971 C104.140203,10.675971 104.853436,10.9400768 105.332474,11.4784464 C105.811511,12.016816 106.045707,12.8091336 106.045707,13.865557 L106.045707,21.6363636 L108.366376,21.6363636 L108.366376,13.5912932 C108.366376,12.4840802 108.174762,11.5597098 107.802177,10.8181818 C107.418947,10.0766539 106.886683,9.52812633 106.194741,9.1522834 Z" id="路径"></path>
                    <path d="M121.100466,9.13917204 C120.094948,8.56833784 118.944304,8.27272727 117.6589,8.27272727 C116.394228,8.27272727 115.253951,8.55814437 114.238067,9.13917204 C113.222183,9.71000624 112.413622,10.5050967 111.822751,11.5040566 C111.23188,12.5030164 110.931261,13.6548783 110.931261,14.9596422 C110.931261,16.2440191 111.23188,17.3856875 111.822751,18.3948409 C112.413622,19.4039942 113.222183,20.1990847 114.238067,20.7699189 C115.253951,21.3407531 116.394228,21.6363636 117.6589,21.6363636 C118.944304,21.6363636 120.084582,21.3509465 121.100466,20.7699189 C122.105984,20.1990847 122.914544,19.4039942 123.505416,18.3948409 C124.096287,17.3856875 124.396906,16.2338257 124.396906,14.9596422 C124.396906,13.6650718 124.096287,12.5132099 123.505416,11.5040566 C122.914544,10.5050967 122.11635,9.72019971 121.100466,9.13917204 Z M121.525479,17.3245267 C121.141931,18.0074891 120.613256,18.5579363 119.939456,18.9554816 C119.265655,19.3530268 118.508925,19.5568962 117.6589,19.5568962 C116.808875,19.5568962 116.052145,19.3530268 115.378345,18.9554816 C114.704544,18.5579363 114.17587,18.0176825 113.792322,17.3245267 C113.408774,16.6415644 113.211817,15.8464739 113.211817,14.9596422 C113.211817,14.0728105 113.408774,13.27772 113.792322,12.5845642 C114.17587,11.8914084 114.704544,11.3511546 115.378345,10.9536093 C116.052145,10.5662575 116.808875,10.3725817 117.6589,10.3725817 C118.508925,10.3725817 119.265655,10.5662575 119.939456,10.9536093 C120.613256,11.3409611 121.141931,11.8812149 121.525479,12.5845642 C121.909027,13.27772 122.105984,14.0728105 122.105984,14.9596422 C122.105984,15.8464739 121.919393,16.6415644 121.525479,17.3245267 Z" id="形状"></path>
                    <polygon id="路径" points="141.132462 8.60740089 137.919695 16.9219074 134.198579 7.63636364 130.721471 16.8612176 127.529038 8.60740089 125.038127 8.60740089 130.5893 22.2727273 134.218913 13.0276434 138.082367 22.2727273 143.63354 8.60740089"></polygon>
                </g>
                <g id="编组" transform="translate(0.000000, -0.000000)">
                    <path d="M27.3564974,21.2741202 L25.9443835,20.5024742 L24.1471476,19.5121951 L23.5181151,20.6953857 L25.2383265,21.7242471 C23.1715053,24.8365527 19.6412206,26.8942755 15.6231147,26.8942755 C11.3482608,26.8942755 7.59974024,24.5536158 5.60994339,21.0940695 L3.79987012,21.0940695 C5.93087836,25.4795911 10.423968,28.5018713 15.6231147,28.5018713 C20.2189035,28.5018713 24.2755216,26.1354902 26.6247656,22.5473362 L28.3834893,23.5890583 C25.6747981,27.7816684 20.9763101,30.5467333 15.6231147,30.5467333 C9.26860212,30.5467333 3.82554492,26.6370601 1.56616268,21.0812087 L0,21.0812087 C2.33640663,27.4601492 8.44700858,32 15.635952,32 C21.5154808,32 26.6889526,28.9391374 29.6543918,24.322122 C29.9368146,23.8719952 30.2064,23.4090076 30.4503106,22.9460199 L29.1665707,22.2386778 L27.3564974,21.2741202 Z" id="路径" fill="#4ED71D"></path>
                    <path d="M16.1463839,10.1223961 C17.9261725,10.1223961 19.5179553,10.8847632 20.6209229,12.0897949 L21.8617614,11.1429843 C20.4705182,9.56906524 18.4275214,8.58536585 16.1463839,8.58536585 C11.9726542,8.58536585 8.58854913,11.9053513 8.58854913,16 C8.58854913,20.0946487 11.9726542,23.4146341 16.1463839,23.4146341 C18.0640435,23.4146341 19.8187646,22.7137483 21.1473392,21.5579015 L20.1321077,20.3897585 C19.079275,21.3119767 17.6754981,21.8776039 16.1463839,21.8776039 C12.8374811,21.8776039 10.1552645,19.246208 10.1552645,16 C10.1677982,12.753792 12.8500148,10.1223961 16.1463839,10.1223961 Z" id="路径" fill="#FFFFFF"></path>
                    <path d="M3.14118993,10.7913002 L4.56434129,11.5183737 L6.46187643,12.4878049 L7.24396862,11.1357034 L5.39771821,10.0897382 C7.47474992,7.05388774 10.9621118,5.06400259 14.9238575,5.06400259 C19.1163844,5.06400259 22.7832429,7.29624555 24.8089899,10.6254765 L26.6424191,10.6254765 C24.4756391,6.37783702 20.0395096,3.46954334 14.9238575,3.46954334 C10.3595162,3.46954334 6.34648578,5.79107601 3.98738804,9.29888637 L2.20524354,8.29118812 C4.91051324,4.15834973 9.59024518,1.44139117 14.9110363,1.44139117 C21.180595,1.44139117 26.565492,5.22982635 28.873305,10.6382321 L30.4503106,10.6382321 C28.0655704,4.41346322 22.0139719,0 14.9110363,0 C9.03893429,0 3.88481857,3.02309475 0.923125204,7.58962605 C0.589774436,8.11260868 0.269244851,8.64834699 0,9.20959665 L1.29493952,9.8728917 L3.14118993,10.7913002 Z" id="路径" fill="#4ED71D"></path>
                </g>
            </g>
        </g>
    </g>
</svg>