<?xml version="1.0" encoding="UTF-8"?>
<svg width="237px" height="42px" viewBox="0 0 237 42" version="1.1" xmlns="http://www.w3.org/2000/svg" xmlns:xlink="http://www.w3.org/1999/xlink">
    <title>切片</title>
    <g id="页面-1" stroke="none" stroke-width="1" fill="none" fill-rule="evenodd">
        <g id="CryptoShow" transform="translate(-359.000000, -29.000000)" fill-rule="nonzero">
            <g id="绿底" transform="translate(359.312303, 0.000000)">
                <g id="编组-9" transform="translate(0.000000, 29.338319)">
                    <g id="编组" transform="translate(52.687697, 2.661681)" fill="#FFFFFF">
                        <path d="M12.9533295,2.45454545 C11.1512449,2.45454545 9.47110596,2.77416073 7.89936306,3.41339129 C6.32762015,4.05262184 4.95911986,4.97151577 3.78031268,6.14343845 C2.6015055,7.31536114 1.66658946,8.70036068 1.00266358,10.3117544 C0.338737695,11.9098308 0,13.6543975 0,15.5454545 C0,17.4365116 0.338737695,19.1810783 1.00266358,20.7791547 C1.66658946,22.3772311 2.58795599,23.7622306 3.78031268,24.9474706 C4.95911986,26.1193933 6.34116966,27.0382872 7.89936306,27.6775178 C9.47110596,28.3167484 11.1512449,28.6363636 12.9533295,28.6363636 C14.8502606,28.6363636 16.4491025,28.4099695 17.7227562,27.9438639 C18.99641,27.4777583 20.1887666,26.7852585 21.2727273,25.83973 L21.2727273,21.7646352 C20.6765489,22.5104041 19.958425,23.1762693 19.131905,23.7489133 C18.2918356,24.3215574 17.3569195,24.7610284 16.3407064,25.0806437 C15.3109438,25.4002589 14.1863347,25.5467493 12.9533295,25.5467493 C11.2460915,25.5467493 9.67434858,25.1205956 8.22455124,24.2682882 C6.77475391,23.4159808 5.59594673,22.2440581 4.6881297,20.7392028 C3.79386219,19.2343475 3.33317892,17.5030981 3.33317892,15.5454545 C3.33317892,13.5611764 3.78031268,11.8166096 4.6881297,10.3250717 C5.58239722,8.83353371 6.7612044,7.66161102 8.22455124,6.82262092 C9.67434858,5.97031351 11.259641,5.54415981 12.9533295,5.54415981 C14.1863347,5.54415981 15.3109438,5.70396745 16.3407064,6.01026542 C17.370469,6.3298807 18.2918356,6.76935171 19.131905,7.34199575 C19.9719745,7.91463979 20.6900984,8.56718764 21.2727273,9.32627393 L21.2727273,5.25117914 C20.1887666,4.30565061 19.0099595,3.59983353 17.7227562,3.14704522 C16.4491025,2.68093961 14.8502606,2.45454545 12.9533295,2.45454545 Z" id="路径"></path>
                        <path d="M32.7957398,10.6363636 C32.0015215,10.6363636 31.2073032,10.9443775 30.4404717,11.5470134 C29.961202,11.9219868 29.536706,12.3907036 29.1669836,12.9263799 L29.1669836,10.9979452 L26.1818182,10.9979452 L26.1818182,27.8181818 L29.1669836,27.8181818 L29.1669836,17.5733721 C29.1669836,16.7698576 29.2491442,16.0466945 29.4134652,15.4172749 C29.5777862,14.7878552 29.865348,14.2789627 30.289844,13.9173811 C30.7143401,13.5557996 31.3031571,13.3683129 32.0426017,13.3683129 C32.5355649,13.3683129 32.9463674,13.4352724 33.2750095,13.5691915 C33.6036516,13.7031106 33.9596805,13.9173811 34.3567897,14.2120031 L36,11.8014596 C35.5481172,11.3327429 35.0551541,11.024729 34.5211107,10.8640261 C34.0007607,10.7167151 33.4256371,10.6363636 32.7957398,10.6363636 Z" id="路径"></path>
                        <polygon id="路径" points="45.5320566 22.8941027 40.9887972 11.4545455 37.6363636 11.4545455 43.849368 25.711011 39.3967149 36 42.5808796 36 53.1818182 11.4545455 49.9976535 11.4545455"></polygon>
                        <path d="M68.002579,11.6656051 C66.7904578,10.9751013 65.4493875,10.6363636 63.9664732,10.6363636 C62.625403,10.6363636 61.4519665,10.9751013 60.4332689,11.6656051 C59.6337847,12.1997684 58.9761444,12.9293573 58.4474533,13.828315 L58.4474533,10.9881297 L55.6363636,10.9881297 L55.6363636,35.1818182 L58.4474533,35.1818182 L58.4474533,24.5115808 C58.9761444,25.4105385 59.6337847,26.1401274 60.4332689,26.6742907 C61.4519665,27.3647944 62.6382979,27.7035321 63.9664732,27.7035321 C65.4493875,27.7035321 66.7904578,27.3647944 68.002579,26.6742907 C69.2147002,25.9837869 70.1818182,25.0066589 70.9039329,23.71685 C71.6260477,22.4400695 72,20.9157499 72,19.1699479 C72,17.3850608 71.6389426,15.8737695 70.9039329,14.596989 C70.1818182,13.3332368 69.2147002,12.3430805 68.002579,11.6656051 Z M68.3894262,22.3618992 C67.8865248,23.2348002 67.2159897,23.8992472 66.3778208,24.3552403 C65.5396518,24.8112334 64.6241135,25.0327157 63.6183108,25.0327157 C62.7930368,25.0327157 61.9806576,24.8112334 61.1940683,24.3552403 C60.3945841,23.8992472 59.7369439,23.2348002 59.2211476,22.3618992 C58.7053514,21.4889983 58.4474533,20.4206717 58.4474533,19.1569195 C58.4474533,17.9061957 58.7053514,16.8378691 59.2211476,15.9519398 C59.7369439,15.0790388 60.3945841,14.4145918 61.1940683,13.9585987 C61.9935525,13.5026057 62.8059317,13.2811233 63.6183108,13.2811233 C64.6241135,13.2811233 65.5525467,13.5026057 66.3778208,13.9585987 C67.2159897,14.4145918 67.8736299,15.0790388 68.3894262,15.9519398 C68.8923275,16.8248408 69.1502257,17.8931673 69.1502257,19.1569195 C69.1502257,20.4206717 68.8923275,21.4889983 68.3894262,22.3618992 Z" id="形状"></path>
                        <polygon id="路径" points="79.1473654 4.90909091 76.3071801 4.90909091 76.3071801 10.8224239 73.6363636 10.8224239 73.6363636 13.596413 76.3071801 13.596413 76.3071801 27.8181818 79.1473654 27.8181818 79.1473654 13.596413 81.8181818 13.596413 81.8181818 10.8224239 79.1473654 10.8224239"></polygon>
                        <path d="M96.4301911,11.7503641 C95.1471761,11.0164344 93.6789838,10.6363636 92.0388411,10.6363636 C90.4251522,10.6363636 88.9701869,11.0033285 87.673945,11.7503641 C86.3777031,12.4842937 85.3460004,13.5065529 84.5920638,14.7909299 C83.8381272,16.0753068 83.4545455,17.5562721 83.4545455,19.2338257 C83.4545455,20.8851675 83.8381272,22.3530268 84.5920638,23.6505097 C85.3460004,24.9479925 86.3777031,25.9702517 87.673945,26.7041814 C88.9701869,27.4381111 90.4251522,27.8181818 92.0388411,27.8181818 C93.6789838,27.8181818 95.1339492,27.451217 96.4301911,26.7041814 C97.713206,25.9702517 98.7449087,24.9479925 99.4988453,23.6505097 C100.252782,22.3530268 100.636364,20.8720616 100.636364,19.2338257 C100.636364,17.569378 100.252782,16.0884127 99.4988453,14.7909299 C98.7449087,13.5065529 97.713206,12.4973996 96.4301911,11.7503641 Z M96.9724963,22.2743915 C96.4830989,23.152486 95.808524,23.8602039 94.9487718,24.3713335 C94.0890195,24.8824631 93.1234516,25.1445808 92.0388411,25.1445808 C90.9542305,25.1445808 89.9886626,24.8824631 89.1289104,24.3713335 C88.2691581,23.8602039 87.5945832,23.1655918 87.1051858,22.2743915 C86.6157884,21.3962971 86.3644762,20.3740379 86.3644762,19.2338257 C86.3644762,18.0936135 86.6157884,17.0713543 87.1051858,16.1801539 C87.5945832,15.2889536 88.2691581,14.5943416 89.1289104,14.083212 C89.9886626,13.5851883 90.9542305,13.3361764 92.0388411,13.3361764 C93.1234516,13.3361764 94.0890195,13.5851883 94.9487718,14.083212 C95.808524,14.5812357 96.4830989,15.2758477 96.9724963,16.1801539 C97.4618938,17.0713543 97.713206,18.0936135 97.713206,19.2338257 C97.713206,20.3740379 97.4618938,21.3962971 96.9724963,22.2743915 Z" id="形状"></path>
                        <path d="M117.339781,16.224637 C116.720825,15.6253584 116.037395,15.1459354 115.31528,14.7464164 C114.593166,14.3602146 113.896841,14.0405993 113.239201,13.8008878 C111.807866,13.2948303 110.673114,12.7754555 109.84784,12.2560806 C109.009671,11.7367058 108.416505,11.1773791 108.068343,10.5781004 C107.720181,9.97882179 107.539652,9.33959123 107.539652,8.63377416 C107.539652,7.80810136 107.84913,7.06233238 108.45519,6.39646722 C109.061251,5.73060205 110.041264,5.39766947 111.382334,5.39766947 C112.349452,5.39766947 113.161831,5.59742902 113.832366,5.98363081 C114.502901,6.36983261 115.070277,6.86257283 115.534494,7.47516878 C115.998711,8.08776473 116.385558,8.70036068 116.695035,9.32627393 L119.261122,7.79478406 C118.86138,6.90252474 118.306899,6.05021733 117.610574,5.23786183 C116.901354,4.42550633 116.05029,3.75964117 115.057382,3.24026635 C114.064475,2.72089152 112.891038,2.45454545 111.549968,2.45454545 C110.170213,2.45454545 108.932302,2.73420882 107.84913,3.30685286 C106.765957,3.8794969 105.927789,4.65190049 105.308833,5.65069823 C104.702772,6.64949598 104.393295,7.76814945 104.393295,9.03329326 C104.393295,10.1918986 104.612508,11.1773791 105.050935,11.9764173 C105.489362,12.7754555 106.043843,13.4546379 106.727273,14.0006474 C107.410703,14.5466568 108.119923,14.9994451 108.880722,15.345695 C109.628627,15.6919449 110.312057,15.9849256 110.918117,16.1980024 C111.859446,16.5442523 112.736299,16.9171368 113.574468,17.3432905 C114.412637,17.7694442 115.083172,18.3154536 115.598968,18.9946361 C116.114765,19.6738186 116.372663,20.5793952 116.372663,21.7246833 C116.372663,22.8832886 115.972921,23.8421345 115.173436,24.6012208 C114.373952,25.3469897 113.31657,25.7331915 112.001289,25.7331915 C111.021277,25.7331915 110.131528,25.5201147 109.357834,25.0806437 C108.584139,24.6411727 107.887814,24.041894 107.268859,23.2561731 C106.649903,22.4837695 106.056738,21.5781929 105.489362,20.5660779 L103.090909,22.2440581 C103.632495,23.3627116 104.32882,24.4014612 105.179884,25.3869416 C106.030948,26.3724221 107.03675,27.158143 108.171502,27.7441043 C109.306254,28.343383 110.544165,28.6363636 111.885235,28.6363636 C112.865248,28.6363636 113.819471,28.4632387 114.722115,28.1303061 C115.624758,27.7973735 116.437137,27.3046333 117.146357,26.6787201 C117.868472,26.0528068 118.422953,25.2804032 118.83559,24.3881439 C119.248227,23.4958846 119.454545,22.4837695 119.454545,21.3651161 C119.454545,20.2065107 119.261122,19.2077129 118.86138,18.3687228 C118.461638,17.5297327 117.958736,16.8105984 117.339781,16.224637 Z" id="路径"></path>
                        <path d="M135.501776,11.7672215 C134.618874,11.2970551 133.586559,11.0489117 132.40483,11.0489117 C131.2231,11.0489117 130.177202,11.3492958 129.267134,11.9370038 C128.465732,12.459411 127.813743,13.1516005 127.324751,14.0135723 L127.324751,0 L124.363636,0 L124.363636,27.8181818 L127.324751,27.8181818 L127.324751,17.8271447 C127.324751,17.0435339 127.501332,16.3382843 127.868075,15.7244558 C128.221236,15.1106274 128.737393,14.6143406 129.389382,14.2617157 C130.041371,13.9090909 130.802024,13.7262484 131.671342,13.7262484 C132.880238,13.7262484 133.790305,14.0658131 134.401545,14.7580026 C135.012784,15.4501921 135.311612,16.468886 135.311612,17.8271447 L135.311612,27.8181818 L138.272727,27.8181818 L138.272727,17.4745198 C138.272727,16.0509603 138.028232,14.862484 137.552823,13.9090909 C137.063832,12.9556978 136.384677,12.2504481 135.501776,11.7672215 Z" id="路径"></path>
                        <path d="M154.5211,11.7503641 C153.238085,11.0164344 151.769893,10.6363636 150.12975,10.6363636 C148.516061,10.6363636 147.061096,11.0033285 145.764854,11.7503641 C144.468612,12.4842937 143.43691,13.5065529 142.682973,14.7909299 C141.929036,16.0753068 141.545455,17.5562721 141.545455,19.2338257 C141.545455,20.8851675 141.929036,22.3530268 142.682973,23.6505097 C143.43691,24.9479925 144.468612,25.9702517 145.764854,26.7041814 C147.061096,27.4381111 148.516061,27.8181818 150.12975,27.8181818 C151.769893,27.8181818 153.224858,27.451217 154.5211,26.7041814 C155.804115,25.9702517 156.835818,24.9479925 157.589754,23.6505097 C158.343691,22.3530268 158.727273,20.8720616 158.727273,19.2338257 C158.727273,17.569378 158.343691,16.0884127 157.589754,14.7909299 C156.835818,13.5065529 155.817342,12.4973996 154.5211,11.7503641 Z M155.063405,22.2743915 C154.574008,23.152486 153.899433,23.8602039 153.039681,24.3713335 C152.179929,24.8824631 151.214361,25.1445808 150.12975,25.1445808 C149.04514,25.1445808 148.079572,24.8824631 147.219819,24.3713335 C146.360067,23.8602039 145.685492,23.1655918 145.196095,22.2743915 C144.706697,21.3962971 144.455385,20.3740379 144.455385,19.2338257 C144.455385,18.0936135 144.706697,17.0713543 145.196095,16.1801539 C145.685492,15.2889536 146.360067,14.5943416 147.219819,14.083212 C148.079572,13.5851883 149.04514,13.3361764 150.12975,13.3361764 C151.214361,13.3361764 152.179929,13.5851883 153.039681,14.083212 C153.899433,14.5812357 154.574008,15.2758477 155.063405,16.1801539 C155.552803,17.0713543 155.804115,18.0936135 155.804115,19.2338257 C155.804115,20.3740379 155.56603,21.3962971 155.063405,22.2743915 Z" id="形状"></path>
                        <polygon id="路径" points="180.081416 11.0666583 175.982007 21.7567381 171.233958 9.81818182 166.797256 21.6787083 162.723793 11.0666583 159.545455 11.0666583 166.62861 28.6363636 171.259904 16.7498272 176.189572 28.6363636 183.272727 11.0666583"></polygon>
                    </g>
                    <g id="编组">
                        <path d="M35.0375211,27.2574665 L33.2289207,26.2687951 L30.9270658,25 L30.1214165,26.5159629 L32.3246206,27.8341916 C29.6774874,31.8218332 25.1559865,34.4582904 20.0096965,34.4582904 C14.53457,34.4582904 9.73355818,31.4593203 7.18507589,27.0267765 L4.86677909,27.0267765 C7.59612142,32.6457261 13.3507589,36.5180227 20.0096965,36.5180227 C25.8958685,36.5180227 31.091484,33.4860968 34.1003373,28.8887745 L36.3528668,30.2234809 C32.8836425,35.5952626 26.8659359,39.1380021 20.0096965,39.1380021 C11.8709949,39.1380021 4.89966273,34.1287333 2.00590219,27.0102987 L0,27.0102987 C2.99241147,35.1833162 10.8187184,41 20.0261383,41 C27.5564924,41 34.1825464,37.0782698 37.9806071,31.1627188 C38.3423272,30.5859938 38.6876054,29.9927909 39,29.3995881 L37.3558179,28.4933059 L35.0375211,27.2574665 Z" id="路径" fill="#172E45"></path>
                        <path d="M20.6798867,12.9693201 C22.9593957,12.9693201 24.9981114,13.9461028 26.4107649,15.4900498 L28,14.2769486 C26.2181303,12.2603648 23.6015109,11 20.6798867,11 C15.3342776,11 11,15.2537313 11,20.5 C11,25.7462687 15.3342776,30 20.6798867,30 C23.1359773,30 25.3833805,29.10199 27.0849858,27.6210614 L25.7847025,26.1243781 C24.4362606,27.3059701 22.6383381,28.0306799 20.6798867,28.0306799 C16.4419263,28.0306799 13.00661,24.659204 13.00661,20.5 C13.0226629,16.340796 16.4579792,12.9693201 20.6798867,12.9693201 Z" id="路径" fill="#FFFFFF"></path>
                        <path d="M4.02315789,13.8263534 L5.84589474,14.7579162 L8.27621053,16 L9.27789474,14.26762 L6.91326316,12.927477 C9.57347368,9.03779367 14.04,6.48825332 19.1141053,6.48825332 C24.4837895,6.48825332 29.1802105,9.34831461 31.7747368,13.6138917 L34.1229474,13.6138917 C31.3477895,8.17160368 25.6661053,4.4453524 19.1141053,4.4453524 C13.2682105,4.4453524 8.12842105,7.41981614 5.10694737,11.9141982 L2.82442105,10.6230848 C6.28926316,5.3278856 12.2829474,1.84678243 19.0976842,1.84678243 C27.1275789,1.84678243 34.0244211,6.70071502 36.9802105,13.6302349 L39,13.6302349 C35.9456842,5.65474974 28.1949474,0 19.0976842,0 C11.5768421,0 4.97557895,3.87334014 1.18231579,9.72420838 C0.755368421,10.3942799 0.344842105,11.0806946 0,11.7997957 L1.65852632,12.6496425 L4.02315789,13.8263534 Z" id="路径" fill="#172E45"></path>
                    </g>
                </g>
            </g>
        </g>
    </g>
</svg>