<?xml version="1.0" encoding="UTF-8"?>
<svg width="24px" height="24px" viewBox="0 0 24 24" version="1.1" xmlns="http://www.w3.org/2000/svg" xmlns:xlink="http://www.w3.org/1999/xlink">
    <title>切片</title>
    <g id="页面-1" stroke="none" stroke-width="1" fill="none" fill-rule="evenodd">
        <g id="H5_CryptoShow" transform="translate(-321.000000, -28.000000)" fill="#172E45">
            <g id="形状" transform="translate(321.000000, 28.000000)">
                <path d="M0,10.4918033 L10.4632153,10.4918033 L10.4632153,0 L0,0 L0,10.4918033 Z M2.61580381,2.62295081 L7.84741145,2.62295081 L7.84741145,7.86885246 L2.61580381,7.86885246 L2.61580381,2.62295081 Z M13.5367847,0 L13.5367847,10.4918033 L24,10.4918033 L24,0 L13.5367847,0 Z M21.3841962,7.86885246 L16.1525886,7.86885246 L16.1525886,2.62295081 L21.3841962,2.62295081 L21.3841962,7.86885246 Z M0,24 L10.4632153,24 L10.4632153,13.5081967 L0,13.5081967 L0,24 Z M2.61580381,16.1311475 L7.84741145,16.1311475 L7.84741145,21.3770492 L2.61580381,21.3770492 L2.61580381,16.1311475 Z M18.7683924,13.5081967 C15.8779292,13.5081967 13.5367847,15.8557377 13.5367847,18.7540984 C13.5367847,21.652459 15.8779292,24 18.7683924,24 C21.6588556,24 24,21.652459 24,18.7540984 C24,15.8557377 21.6588556,13.5081967 18.7683924,13.5081967 L18.7683924,13.5081967 Z M18.7683924,21.3770492 C17.3231608,21.3770492 16.1525886,20.2032787 16.1525886,18.7540984 C16.1525886,17.304918 17.3231608,16.1311475 18.7683924,16.1311475 C20.213624,16.1311475 21.3841962,17.304918 21.3841962,18.7540984 C21.3841962,20.2032787 20.213624,21.3770492 18.7683924,21.3770492 Z"></path>
            </g>
        </g>
    </g>
</svg>