<?xml version="1.0" encoding="UTF-8"?>
<svg width="40px" height="40px" viewBox="0 0 40 40" version="1.1" xmlns="http://www.w3.org/2000/svg" xmlns:xlink="http://www.w3.org/1999/xlink">
    <title>切片</title>
    <g id="页面-1" stroke="none" stroke-width="1" fill="none" fill-rule="evenodd">
        <g id="画板" transform="translate(-969.000000, -760.000000)" fill="#FB6041" fill-rule="nonzero">
            <g id="形状" transform="translate(969.000000, 760.000000)">
                <path d="M34.1385937,5.8571875 C26.3297656,-1.95238281 13.6698437,-1.95238281 5.86105469,5.8571875 C-1.95367188,13.6667188 -1.95367188,26.3332813 5.86105469,34.1428125 C13.6757812,41.9523438 26.3349609,41.9523828 34.1444922,34.1428125 C41.9525781,26.3332813 41.9525781,13.6667188 34.1385937,5.8571875 Z M28.7134375,26.2666016 C29.3875,26.9406641 29.3875,28.0376953 28.7134375,28.7117578 C28.039375,29.3858203 26.943125,29.3858203 26.2690234,28.7117578 L19.9972266,22.4451563 L13.7306641,28.7117578 C13.0566016,29.3858203 11.9603125,29.3858203 11.28625,28.7117578 C10.612608,28.0358973 10.612608,26.9424621 11.28625,26.2666016 L17.5572266,20 L11.2861328,13.7333984 C10.6124908,13.0575379 10.6124908,11.9641027 11.2861328,11.2882422 C11.9602344,10.6141797 13.0565234,10.6141797 13.7305859,11.2882422 L19.9971875,17.5548438 L26.2630859,11.2882422 C26.9371875,10.6141797 28.0341797,10.6141797 28.7075391,11.2882422 C29.3816016,11.9623047 29.3816016,13.0593359 28.7075391,13.7333984 L22.4430859,20 L28.7141797,26.2666016 L28.7134375,26.2666016 Z"></path>
            </g>
        </g>
    </g>
</svg>