<?xml version="1.0" encoding="UTF-8"?>
<svg width="40px" height="40px" viewBox="0 0 40 40" version="1.1" xmlns="http://www.w3.org/2000/svg" xmlns:xlink="http://www.w3.org/1999/xlink">
    <title>切片</title>
    <g id="页面-1" stroke="none" stroke-width="1" fill="none" fill-rule="evenodd">
        <g id="画板" transform="translate(-804.000000, -551.000000)">
            <g id="编组-6" transform="translate(804.000000, 551.000000)">
                <rect id="矩形" x="0" y="0" width="40" height="40"></rect>
                <g id="download" transform="translate(2.222222, 10.000000)" fill="#3B99FC" fill-rule="nonzero">
                    <path d="M7.28160508,4.29703836 C13.0784909,-1.37859616 22.4770999,-1.37859616 28.2739854,4.29703836 L28.97165,4.98011006 C29.2614943,5.26389176 29.2614943,5.72399287 28.97165,6.0077747 L26.5850788,8.3444269 C26.4401566,8.48631788 26.2051913,8.48631788 26.0602692,8.3444269 L25.1001999,7.404439 C21.0561476,3.44497451 14.4994431,3.44497451 10.4553906,7.404439 L9.42723579,8.4110885 C9.28231353,8.55297935 9.04734827,8.55297935 8.90242624,8.4110885 L6.51585499,6.07443628 C6.2260107,5.79065445 6.2260107,5.33055335 6.51585499,5.04677164 L7.28160508,4.29703836 Z M33.2096402,9.1294822 L35.3336932,11.2091144 C35.623536,11.4928948 35.6235377,11.9529932 35.3336968,12.2367755 L25.7561951,21.6140951 C25.4663528,21.8978789 24.9964224,21.8978821 24.7065761,21.6141024 C24.7065749,21.6141012 24.7065735,21.6140998 24.7065723,21.6140986 L17.9090443,14.9587419 C17.8365832,14.8877965 17.7191006,14.8877965 17.6466395,14.9587419 C17.6466391,14.9587424 17.6466387,14.9587429 17.6466382,14.9587432 L10.849255,21.6140951 C10.5594136,21.8978796 10.0894831,21.8978843 9.79963586,21.6141054 C9.79963417,21.6141037 9.79963236,21.614102 9.79963054,21.6141001 L0.221862313,12.236656 C-0.0679818594,11.9528743 -0.0679818594,11.4927732 0.221862313,11.2089914 L2.34591916,9.12936273 C2.63576333,8.84558101 3.10569384,8.84558101 3.39553815,9.12936273 L10.1931651,15.7848124 C10.2656262,15.8557579 10.3831087,15.8557579 10.4555698,15.7848124 C10.4555709,15.7848114 10.4555719,15.7848104 10.455573,15.7848096 L17.2528593,9.12936273 C17.5426969,8.84557448 18.0126274,8.84556384 18.3024783,9.12933902 C18.3024824,9.129343 18.3024864,9.129347 18.3024903,9.12935099 L25.1001083,15.7848096 C25.1725694,15.8557549 25.290052,15.8557549 25.3625131,15.7848096 L32.1600212,9.1294822 C32.4498655,8.84570037 32.9197959,8.84570037 33.2096402,9.1294822 Z" id="WalletConnect"></path>
                </g>
            </g>
        </g>
    </g>
</svg>