<?xml version="1.0" encoding="UTF-8"?>
<svg width="40px" height="40px" viewBox="0 0 40 40" version="1.1" xmlns="http://www.w3.org/2000/svg" xmlns:xlink="http://www.w3.org/1999/xlink">
    <title>切片</title>
    <g id="页面-1" stroke="none" stroke-width="1" fill="none" fill-rule="evenodd">
        <g id="画板" transform="translate(-804.000000, -451.000000)">
            <g id="编组-6" transform="translate(804.000000, 451.000000)">
                <rect id="矩形" x="0" y="0" width="40" height="40"></rect>
                <g id="icn-metamask.a357c69f" transform="translate(3.333333, 4.444444)" fill-rule="nonzero" stroke-linecap="round" stroke-linejoin="round" stroke-width="0.5">
                    <polygon id="路径" stroke="#E2761B" fill="#E2761B" points="31.581 0.199477778 18.6543333 9.80027778 21.0447778 4.13594444"></polygon>
                    <polygon id="路径" stroke="#E4761B" fill="#E4761B" points="1.7393 0.199477778 14.562 9.89122222 12.2884444 4.13594444"></polygon>
                    <polygon id="路径" stroke="#E4761B" fill="#E4761B" points="26.93 22.4541111 23.4872222 27.7286667 30.8535556 29.7553333 32.9711111 22.571"></polygon>
                    <polygon id="路径" stroke="#E4761B" fill="#E4761B" points="0.375162222 22.571 2.4798 29.7553333 9.84604444 27.7286667 6.40326667 22.4541111"></polygon>
                    <polygon id="路径" stroke="#E4761B" fill="#E4761B" points="9.43026667 13.5418889 7.37758889 16.6468889 14.6918889 16.9716667 14.432 9.11173333"></polygon>
                    <polygon id="路径" stroke="#E4761B" fill="#E4761B" points="23.8898889 13.5418889 18.8232222 9.02078889 18.6543333 16.9716667 25.9555556 16.6468889"></polygon>
                    <polygon id="路径" stroke="#E4761B" fill="#E4761B" points="9.84605556 27.7286667 14.2372222 25.5851111 10.4436667 22.623"></polygon>
                    <polygon id="路径" stroke="#E4761B" fill="#E4761B" points="19.0831111 25.5851111 23.4872222 27.7286667 22.8766667 22.623"></polygon>
                    <polygon id="路径" stroke="#D7C1B3" fill="#D7C1B3" points="23.4872222 27.7286667 19.0831111 25.5851111 19.4338889 28.4562222 19.3948889 29.6644444"></polygon>
                    <polygon id="路径" stroke="#D7C1B3" fill="#D7C1B3" points="9.84605556 27.7286667 13.9384444 29.6644444 13.9124444 28.4562222 14.2372222 25.5851111"></polygon>
                    <polygon id="路径" stroke="#233447" fill="#233447" points="14.0033333 20.7262222 10.3397 19.6478889 12.925 18.4656667"></polygon>
                    <polygon id="路径" stroke="#233447" fill="#233447" points="19.3168889 20.7262222 20.3952222 18.4656667 22.9935556 19.6478889"></polygon>
                    <polygon id="路径" stroke="#CD6116" fill="#CD6116" points="9.84604444 27.7286667 10.4696333 22.4541111 6.40326667 22.571"></polygon>
                    <polygon id="路径" stroke="#CD6116" fill="#CD6116" points="22.8636667 22.4541111 23.4872222 27.7286667 26.93 22.571"></polygon>
                    <polygon id="路径" stroke="#CD6116" fill="#CD6116" points="25.9555556 16.6467778 18.6543333 16.9716667 19.3298889 20.7262222 20.4082222 18.4656667 23.0064444 19.6478889"></polygon>
                    <polygon id="路径" stroke="#CD6116" fill="#CD6116" points="10.3388667 19.6478889 12.9372222 18.4656667 14.0024444 20.7262222 14.691 16.9716667 7.37677778 16.6467778"></polygon>
                    <polygon id="路径" stroke="#E4751F" fill="#E4751F" points="7.37758889 16.6467778 10.4436111 22.623 10.3396778 19.6478889"></polygon>
                    <polygon id="路径" stroke="#E4751F" fill="#E4751F" points="23.0065556 19.6478889 22.8766667 22.623 25.9556667 16.6467778"></polygon>
                    <polygon id="路径" stroke="#E4751F" fill="#E4751F" points="14.6918889 16.9716667 14.0033333 20.7262222 14.8607778 25.1563333 15.0556667 19.3231111"></polygon>
                    <polygon id="路径" stroke="#E4751F" fill="#E4751F" points="18.6543333 16.9716667 18.3035556 19.3101111 18.4594444 25.1563333 19.3298889 20.7262222"></polygon>
                    <polygon id="路径" stroke="#F6851B" fill="#F6851B" points="19.3298889 20.7262222 18.4594444 25.1563333 19.0831111 25.5851111 22.8766667 22.623 23.0065556 19.6478889"></polygon>
                    <polygon id="路径" stroke="#F6851B" fill="#F6851B" points="10.3397 19.6478889 10.4436333 22.623 14.2372222 25.5851111 14.8607778 25.1563333 14.0033333 20.7262222"></polygon>
                    <polygon id="路径" stroke="#C0AD9E" fill="#C0AD9E" points="19.3948889 29.6644444 19.4338889 28.4562222 19.1091111 28.1704444 14.2112222 28.1704444 13.9124444 28.4562222 13.9384444 29.6644444 9.84605556 27.7286667 11.2751111 28.8978889 14.1722222 30.9116667 19.148 30.9116667 22.0581111 28.8978889 23.4872222 27.7286667"></polygon>
                    <polygon id="路径" stroke="#161616" fill="#161616" points="19.083 25.5851111 18.4594444 25.1563333 14.8607778 25.1563333 14.2371111 25.5851111 13.9123333 28.4562222 14.2111111 28.1704444 19.109 28.1704444 19.4337778 28.4562222"></polygon>
                    <polygon id="路径" stroke="#763D16" fill="#763D16" points="32.1266667 10.4238889 33.231 5.1233 31.581 0.199477778 19.0831111 9.47548889 23.89 13.5418889 30.6846667 15.5295556 32.1916667 13.7756667 31.5421111 13.308 32.5814444 12.3596667 31.7758889 11.736 32.8152222 10.9435556"></polygon>
                    <polygon id="路径" stroke="#763D16" fill="#763D16" points="0.102335667 5.1233 1.20662222 10.4238889 0.505075556 10.9435556 1.5444 11.736 0.751915556 12.3596667 1.79124444 13.308 1.14166667 13.7756667 2.6357 15.5295556 9.43031111 13.5418889 14.2372222 9.47548889 1.73927778 0.199477778"></polygon>
                    <polygon id="路径" stroke="#F6851B" fill="#F6851B" points="30.6846667 15.5295556 23.89 13.5418889 25.9556667 16.6467778 22.8766667 22.623 26.93 22.571 32.9711111 22.571"></polygon>
                    <polygon id="路径" stroke="#F6851B" fill="#F6851B" points="9.43031111 13.5418889 2.6357 15.5295556 0.375162222 22.571 6.40326667 22.571 10.4436556 22.623 7.37764444 16.6467778"></polygon>
                    <polygon id="路径" stroke="#F6851B" fill="#F6851B" points="18.6543333 16.9716667 19.0831111 9.4755 21.0577778 4.13594444 12.2884444 4.13594444 14.2372222 9.4755 14.6918889 16.9716667 14.8477778 19.3361111 14.8607778 25.1563333 18.4594444 25.1563333 18.4854444 19.3361111"></polygon>
                </g>
            </g>
        </g>
    </g>
</svg>