<?xml version="1.0" encoding="UTF-8"?>
<svg width="49px" height="34px" viewBox="0 0 49 34" version="1.1" xmlns="http://www.w3.org/2000/svg" xmlns:xlink="http://www.w3.org/1999/xlink">
    <title>切片</title>
    <g id="页面-1" stroke="none" stroke-width="1" fill="none" fill-rule="evenodd" opacity="0.5">
        <g id="CryptoShow" transform="translate(-1407.000000, -7864.000000)" fill="#FFFFFF">
            <g id="footer" transform="translate(0.000000, 7703.000000)">
                <g id="编组-33" transform="translate(995.000000, 156.000000)">
                    <g id="gitbook" transform="translate(412.444803, 5.000000)">
                        <path d="M44.0989626,9.89746152 C43.8917471,10.3775619 43.5225481,10.7702768 43.0553451,11.0075513 L22.0712147,21.664589 C21.4488452,21.9806667 20.7143708,21.9901678 20.0839812,21.6902958 L5.03989268,14.5339265 C4.84636042,14.4418645 4.67210546,14.3257843 4.51900605,14.1909762 C3.96418732,14.7338437 3.50557057,15.3848124 3.17990034,16.119737 C2.30291791,18.0987819 3.07603044,20.3689902 4.94083858,21.3998073 L5.14479142,21.5054397 L18.1735194,27.8157639 C18.5743252,27.1288156 19.1752488,26.5422782 19.9438787,26.1519204 C21.5565668,25.3328978 23.4362792,25.6168184 24.6890906,26.7251569 L24.6069608,26.5712146 L39.8058968,18.85136 C39.7242877,17.2524675 40.59247,15.6652902 42.1439083,14.8773739 C44.2338068,13.8159944 46.772141,14.6068784 47.8134364,16.6438629 C48.8547318,18.6808474 48.0046711,21.1925677 45.9147726,22.2539472 C44.1744525,23.1377893 42.1231699,22.7372007 40.8843324,21.4022082 L25.9802328,28.9714307 C26.335632,30.7550878 25.455063,32.6446517 23.7147429,33.5284938 C21.6248444,34.5898733 19.0865102,33.7989893 18.0452148,31.7620048 C17.8024136,31.2870364 17.6624441,30.786257 17.6170467,30.2840715 L17.4640781,30.5827124 L3.86347955,23.9974101 C0.522087405,22.3795345 -0.909468109,18.4556873 0.599404356,15.050686 C1.41258568,13.2156181 2.79593189,11.7406103 4.48343544,10.7888606 L4.98760854,10.5185106 L4.98760854,10.5185106 L25.218481,0.244023744 C25.8134664,-0.0581465874 26.5124898,-0.080789091 27.125903,0.182239246 L42.9232494,6.95605762 C44.0628207,7.44469973 44.5892054,8.76161112 44.0989626,9.89746152 Z M22.859278,29.4012363 C22.4541679,28.595627 21.4666433,28.2828394 20.65358,28.7026056 C19.8405168,29.1223718 19.5098054,30.115735 19.9149155,30.9213443 C20.3200257,31.7269537 21.3075503,32.0397413 22.1206135,31.6199751 C22.9336768,31.2002088 23.2643881,30.2068457 22.859278,29.4012363 Z M45.8915361,17.3367202 C45.486426,16.5311109 44.4989013,16.2183232 43.6858381,16.6380895 C42.8727748,17.0578557 42.5420635,18.0512188 42.9471736,18.8568282 C43.3522837,19.6624375 44.3398083,19.9752252 45.1528716,19.5554589 C45.9659348,19.1356927 46.2966462,18.1423295 45.8915361,17.3367202 Z" id="形状"></path>
                    </g>
                </g>
            </g>
        </g>
    </g>
</svg>