<?xml version="1.0" encoding="UTF-8"?>
<svg width="44px" height="44px" viewBox="0 0 44 44" version="1.1" xmlns="http://www.w3.org/2000/svg" xmlns:xlink="http://www.w3.org/1999/xlink">
    <title>切片</title>
    <g id="页面-1" stroke="none" stroke-width="1" fill="none" fill-rule="evenodd" opacity="0.5">
        <g id="CryptoShow" transform="translate(-995.000000, -7859.000000)" fill="#FFFFFF" fill-rule="nonzero">
            <g id="footer" transform="translate(0.000000, 7703.000000)">
                <g id="编组-33" transform="translate(995.000000, 156.000000)">
                    <g id="telegram" transform="translate(-0.000000, -0.000000)">
                        <path d="M22,44 C9.8494,44 -3.55271368e-15,34.1506 -3.55271368e-15,22 C-3.55271368e-15,9.8494 9.8494,-3.55271368e-15 22,-3.55271368e-15 C34.1506,-3.55271368e-15 44,9.8494 44,22 C44,34.1506 34.1506,44 22,44 Z M15.3049553,24.3103926 L15.3333211,24.2944937 L17.2316485,30.8130717 C17.4760308,31.5194403 17.8120566,31.6466321 18.2200879,31.5875788 C18.6303012,31.5307967 18.8463177,31.3013973 19.1147019,31.0333861 L21.7069007,28.4259548 L27.2709637,32.7141344 C28.2877689,33.2978538 29.018734,32.9957733 29.2718443,31.7329408 L32.8873943,13.9669764 C33.2866976,12.3134834 32.5884623,11.6502692 31.3556405,12.1772066 L10.1183758,20.7172252 C8.66953745,21.3213861 8.67826539,22.1663028 9.85653755,22.5410643 L15.3049553,24.3126639 L15.3049553,24.3103926 Z" id="形状"></path>
                    </g>
                </g>
            </g>
        </g>
    </g>
</svg>