<?xml version="1.0" encoding="UTF-8"?>
<svg width="45px" height="37px" viewBox="0 0 45 37" version="1.1" xmlns="http://www.w3.org/2000/svg" xmlns:xlink="http://www.w3.org/1999/xlink">
    <title>切片</title>
    <g id="页面-1" stroke="none" stroke-width="1" fill="none" fill-rule="evenodd" opacity="0.5">
        <g id="CryptoShow" transform="translate(-1099.000000, -7863.000000)" fill="#FFFFFF" fill-rule="nonzero">
            <g id="footer" transform="translate(0.000000, 7703.000000)">
                <g id="编组-33" transform="translate(995.000000, 156.000000)">
                    <g id="twitter" transform="translate(104.000000, 4.000000)">
                        <path d="M44.8426,4.32869992 C43.1630253,5.07162612 41.3819122,5.55954137 39.5582,5.77629992 C41.4804518,4.62665322 42.9191521,2.81733122 43.6062,0.685499923 C41.8022,1.75909992 39.8244,2.51149992 37.763,2.91849992 C34.9158689,-0.127797149 30.3760106,-0.878504203 26.6997858,1.08909636 C23.0235609,3.05669692 21.1301834,7.25062058 22.0858,11.3092999 C14.6872496,10.9384751 7.79403656,7.44388799 3.1218,1.69529992 C2.30403826,3.09989062 1.87430132,4.69659872 1.8766,6.32189992 C1.8766,9.51189992 3.5002,12.3300999 5.9686,13.9800999 C4.50781938,13.9341116 3.07919128,13.5396171 1.8018,12.8294999 L1.8018,12.9438999 C1.80270902,17.3241787 4.88953172,21.0973709 9.1828,21.9660999 C7.82675307,22.3335811 6.40487471,22.3877479 5.0248,22.1244999 C6.22847936,25.8737026 9.68319313,28.442411 13.6202,28.5154999 C9.76567148,31.5427426 4.86582799,32.9135274 -8.17124146e-14,32.3258999 C4.20573513,35.030652 9.101613,36.4665725 14.102,36.4619113 C31.0266,36.4619113 40.282,22.4412999 40.282,10.2818999 C40.282,9.88589992 40.271,9.48549992 40.2534,9.09389992 C42.0549011,7.79186878 43.6097172,6.17894258 44.8448,4.33089992 L44.8426,4.32869992 Z" id="路径"></path>
                    </g>
                </g>
            </g>
        </g>
    </g>
</svg>