<?xml version="1.0" encoding="UTF-8"?>
<svg width="45px" height="36px" viewBox="0 0 45 36" version="1.1" xmlns="http://www.w3.org/2000/svg" xmlns:xlink="http://www.w3.org/1999/xlink">
    <title>切片</title>
    <g id="页面-1" stroke="none" stroke-width="1" fill="none" fill-rule="evenodd" opacity="0.5">
        <g id="CryptoShow" transform="translate(-1515.000000, -7863.000000)" fill="#FFFFFF" fill-rule="nonzero">
            <g id="footer" transform="translate(0.000000, 7703.000000)">
                <g id="编组-33" transform="translate(995.000000, 156.000000)">
                    <g id="youtube" transform="translate(520.702868, 4.000000)">
                        <path d="M42.9946,5.4956 C44,9.416 44,17.6 44,17.6 C44,17.6 44,25.784 42.9946,29.7044 C42.4358,31.8714 40.8012,33.5764 38.731,34.1528 C34.9712,35.2 22,35.2 22,35.2 C22,35.2 9.0354,35.2 5.269,34.1528 C3.19,33.5676 1.5576,31.8648 1.0054,29.7044 C0,25.784 0,17.6 0,17.6 C0,17.6 0,9.416 1.0054,5.4956 C1.5642,3.3286 3.1988,1.6236 5.269,1.0472 C9.0354,3.62376795e-13 22,3.62376795e-13 22,3.62376795e-13 C22,3.62376795e-13 34.9712,3.62376795e-13 38.731,1.0472 C40.81,1.6324 42.4424,3.3352 42.9946,5.4956 Z M17.6,25.3 L30.8,17.6 L17.6,9.9 L17.6,25.3 Z" id="形状"></path>
                    </g>
                </g>
            </g>
        </g>
    </g>
</svg>